<svg xmlns="http://www.w3.org/2000/svg" xmlns:xlink="http://www.w3.org/1999/xlink" width="500" zoomAndPan="magnify" viewBox="0 0 375 374.999991" height="500" preserveAspectRatio="xMidYMid meet" version="1.0"><defs><clipPath id="b8df807d61"><path d="M 1 160.078125 L 374 160.078125 L 374 214.828125 L 1 214.828125 Z M 1 160.078125 " clip-rule="nonzero"/></clipPath></defs><g clip-path="url(#b8df807d61)"><path fill="#3b6bd8" d="M 28.058594 160.183594 L 338.941406 160.183594 C 349.867188 160.183594 359.242188 166.8125 363.246094 176.257812 C 363.449219 177.09375 363.277344 176.417969 363.96875 178.714844 C 364.210938 179.484375 364.679688 181.472656 364.980469 183.6875 L 365.246094 186.140625 L 365.320312 186.503906 L 365.320312 186.820312 L 365.511719 188.582031 C 366.140625 195.574219 364.824219 210.476562 373.429688 214.292969 C 373.1875 214.929688 363.589844 213.847656 358.011719 210.773438 L 355.660156 208.421875 L 353.691406 210.042969 C 349.480469 212.878906 344.40625 214.535156 338.941406 214.535156 L 28.058594 214.535156 C 13.496094 214.535156 1.683594 202.753906 1.683594 188.21875 L 1.683594 186.503906 C 1.683594 171.964844 13.496094 160.183594 28.058594 160.183594 Z M 28.058594 160.183594 " fill-opacity="1" fill-rule="evenodd"/></g></svg>