<svg xmlns="http://www.w3.org/2000/svg" xmlns:xlink="http://www.w3.org/1999/xlink" width="500" zoomAndPan="magnify" viewBox="0 0 375 374.999991" height="500" preserveAspectRatio="xMidYMid meet" version="1.0"><defs><clipPath id="d388c05d9b"><path d="M 1 160.171875 L 374 160.171875 L 374 214.828125 L 1 214.828125 Z M 1 160.171875 " clip-rule="nonzero"/></clipPath></defs><g clip-path="url(#d388c05d9b)"><path fill="#3b6bd8" d="M 28.058594 214.816406 L 338.941406 214.816406 C 349.867188 214.816406 359.242188 208.1875 363.246094 198.742188 C 363.449219 197.90625 363.277344 198.582031 363.96875 196.285156 C 364.210938 195.515625 364.679688 193.527344 364.980469 191.3125 L 365.246094 188.859375 L 365.320312 188.496094 L 365.320312 188.179688 L 365.511719 186.417969 C 366.140625 179.425781 364.824219 164.523438 373.429688 160.707031 C 373.1875 160.070312 363.589844 161.152344 358.011719 164.226562 L 355.660156 166.578125 L 353.691406 164.957031 C 349.480469 162.121094 344.40625 160.464844 338.941406 160.464844 L 28.058594 160.464844 C 13.496094 160.464844 1.683594 172.246094 1.683594 186.78125 L 1.683594 188.496094 C 1.683594 203.035156 13.496094 214.816406 28.058594 214.816406 Z M 28.058594 214.816406 " fill-opacity="1" fill-rule="evenodd"/></g></svg>