<svg xmlns="http://www.w3.org/2000/svg" xmlns:xlink="http://www.w3.org/1999/xlink" width="500" zoomAndPan="magnify" viewBox="0 0 375 374.999991" height="500" preserveAspectRatio="xMidYMid meet" version="1.0"><defs><clipPath id="df02534033"><path d="M 0 175.1875 L 194.894531 175.1875 L 194.894531 272.636719 L 0 272.636719 Z M 0 175.1875 " clip-rule="nonzero"/></clipPath><clipPath id="1202904966"><path d="M 146.171875 175.1875 L 0 175.1875 L 0 272.636719 L 146.171875 272.636719 L 194.894531 223.910156 Z M 146.171875 175.1875 " clip-rule="nonzero"/></clipPath><clipPath id="8dabd5383b"><path d="M 180.085938 120.890625 L 374.980469 120.890625 L 374.980469 218.339844 L 180.085938 218.339844 Z M 180.085938 120.890625 " clip-rule="nonzero"/></clipPath><clipPath id="d900db6f76"><path d="M 228.808594 218.339844 L 374.980469 218.339844 L 374.980469 120.890625 L 228.808594 120.890625 L 180.085938 169.617188 Z M 228.808594 218.339844 " clip-rule="nonzero"/></clipPath><clipPath id="7bf917af2c"><path d="M 0 156.617188 L 194.894531 156.617188 L 194.894531 254.0625 L 0 254.0625 Z M 0 156.617188 " clip-rule="nonzero"/></clipPath><clipPath id="b550a82cb8"><path d="M 146.171875 156.617188 L 0 156.617188 L 0 254.0625 L 146.171875 254.0625 L 194.894531 205.339844 Z M 146.171875 156.617188 " clip-rule="nonzero"/></clipPath><clipPath id="c536f9516e"><path d="M 180.085938 102.320312 L 374.980469 102.320312 L 374.980469 199.769531 L 180.085938 199.769531 Z M 180.085938 102.320312 " clip-rule="nonzero"/></clipPath><clipPath id="9a0c6b918c"><path d="M 228.808594 199.769531 L 374.980469 199.769531 L 374.980469 102.320312 L 228.808594 102.320312 L 180.085938 151.042969 Z M 228.808594 199.769531 " clip-rule="nonzero"/></clipPath></defs><g clip-path="url(#df02534033)"><g clip-path="url(#1202904966)"><path fill="#cbc0c6" d="M 0 175.1875 L 194.894531 175.1875 L 194.894531 272.636719 L 0 272.636719 Z M 0 175.1875 " fill-opacity="1" fill-rule="nonzero"/></g></g><g clip-path="url(#8dabd5383b)"><g clip-path="url(#d900db6f76)"><path fill="#cbc0c6" d="M 374.980469 218.339844 L 180.085938 218.339844 L 180.085938 120.890625 L 374.980469 120.890625 Z M 374.980469 218.339844 " fill-opacity="1" fill-rule="nonzero"/></g></g><g clip-path="url(#7bf917af2c)"><g clip-path="url(#b550a82cb8)"><path fill="#ffffff" d="M 0 156.617188 L 194.894531 156.617188 L 194.894531 254.0625 L 0 254.0625 Z M 0 156.617188 " fill-opacity="1" fill-rule="nonzero"/></g></g><g clip-path="url(#c536f9516e)"><g clip-path="url(#9a0c6b918c)"><path fill="#ffffff" d="M 374.980469 199.769531 L 180.085938 199.769531 L 180.085938 102.320312 L 374.980469 102.320312 Z M 374.980469 199.769531 " fill-opacity="1" fill-rule="nonzero"/></g></g></svg>