<svg xmlns="http://www.w3.org/2000/svg" xmlns:xlink="http://www.w3.org/1999/xlink" width="500" zoomAndPan="magnify" viewBox="0 0 375 374.999991" height="500" preserveAspectRatio="xMidYMid meet" version="1.0"><defs><clipPath id="1ef794901c"><path d="M 22.375 0 L 356.085938 0 L 356.085938 373.25 L 22.375 373.25 Z M 22.375 0 " clip-rule="nonzero"/></clipPath><clipPath id="379abdaec0"><path d="M 31.703125 0 L 365.414062 0 L 365.414062 374.996094 L 31.703125 374.996094 Z M 31.703125 0 " clip-rule="nonzero"/></clipPath><clipPath id="8665f42318"><path d="M 41.15625 0 L 374.867188 0 L 374.867188 374.996094 L 41.15625 374.996094 Z M 41.15625 0 " clip-rule="nonzero"/></clipPath></defs><g clip-path="url(#1ef794901c)"><path fill="#ffffff" d="M 356.199219 -3.777344 L 356.199219 373.25 C 271.394531 367.308594 289.761719 304.648438 265.453125 266.839844 C 241.148438 228.488281 182.8125 249.015625 145 200.402344 C 106.648438 152.328125 116.914062 117.757812 106.648438 89.671875 C 96.386719 61.582031 58.035156 56.179688 38.589844 37.816406 C 22.386719 22.152344 22.386719 -3.777344 22.386719 -3.777344 Z M 356.199219 -3.777344 " fill-opacity="1" fill-rule="nonzero"/></g><g clip-path="url(#379abdaec0)"><path fill="#cbc0c6" d="M 365.527344 -2.03125 L 365.527344 374.996094 C 280.722656 369.054688 299.089844 306.394531 274.78125 268.585938 C 250.476562 230.234375 192.140625 250.761719 154.328125 202.148438 C 115.980469 154.074219 126.242188 119.503906 115.980469 91.414062 C 105.714844 63.328125 67.363281 57.925781 47.917969 39.5625 C 31.714844 23.898438 31.714844 -2.03125 31.714844 -2.03125 Z M 365.527344 -2.03125 " fill-opacity="1" fill-rule="nonzero"/></g><g clip-path="url(#8665f42318)"><path fill="#3b6bd8" d="M 374.980469 -2.03125 L 374.980469 374.996094 C 290.179688 369.054688 308.542969 306.394531 284.234375 268.585938 C 259.929688 230.234375 201.59375 250.761719 163.78125 202.148438 C 125.433594 154.074219 135.695312 119.503906 125.433594 91.414062 C 115.167969 63.328125 76.816406 57.925781 57.371094 39.5625 C 41.167969 23.898438 41.167969 -2.03125 41.167969 -2.03125 Z M 374.980469 -2.03125 " fill-opacity="1" fill-rule="nonzero"/></g></svg>