<svg xmlns="http://www.w3.org/2000/svg" xmlns:xlink="http://www.w3.org/1999/xlink" width="500" zoomAndPan="magnify" viewBox="0 0 375 374.999991" height="500" preserveAspectRatio="xMidYMid meet" version="1.0"><defs><clipPath id="794693fada"><path d="M 0 183.132812 L 373.621094 183.132812 L 373.621094 196.578125 L 0 196.578125 Z M 0 183.132812 " clip-rule="nonzero"/></clipPath><clipPath id="b0ed0bb369"><path d="M 6.722656 183.132812 L 366.863281 183.132812 C 370.574219 183.132812 373.582031 186.144531 373.582031 189.855469 C 373.582031 193.570312 370.574219 196.578125 366.863281 196.578125 L 6.722656 196.578125 C 3.007812 196.578125 0 193.570312 0 189.855469 C 0 186.144531 3.007812 183.132812 6.722656 183.132812 Z M 6.722656 183.132812 " clip-rule="nonzero"/></clipPath><clipPath id="015c880dc7"><path d="M 1.417969 178.421875 L 375 178.421875 L 375 191.867188 L 1.417969 191.867188 Z M 1.417969 178.421875 " clip-rule="nonzero"/></clipPath><clipPath id="7fcb6fec0d"><path d="M 8.136719 178.421875 L 368.277344 178.421875 C 371.988281 178.421875 375 181.429688 375 185.144531 C 375 188.855469 371.988281 191.867188 368.277344 191.867188 L 8.136719 191.867188 C 4.425781 191.867188 1.417969 188.855469 1.417969 185.144531 C 1.417969 181.429688 4.425781 178.421875 8.136719 178.421875 Z M 8.136719 178.421875 " clip-rule="nonzero"/></clipPath></defs><g clip-path="url(#794693fada)"><g clip-path="url(#b0ed0bb369)"><path fill="#cbc0c6" d="M 0 183.132812 L 373.570312 183.132812 L 373.570312 196.578125 L 0 196.578125 Z M 0 183.132812 " fill-opacity="1" fill-rule="nonzero"/></g></g><g clip-path="url(#015c880dc7)"><g clip-path="url(#7fcb6fec0d)"><path fill="#eff2f7" d="M 1.417969 178.421875 L 374.984375 178.421875 L 374.984375 191.867188 L 1.417969 191.867188 Z M 1.417969 178.421875 " fill-opacity="1" fill-rule="nonzero"/></g></g></svg>