<svg xmlns="http://www.w3.org/2000/svg" xmlns:xlink="http://www.w3.org/1999/xlink" width="1000" zoomAndPan="magnify" viewBox="0 0 750 30.000001" height="40" preserveAspectRatio="xMidYMid meet" version="1.0"><defs><clipPath id="d05a67d6a8"><path d="M 12.097656 0 L 737.902344 0 L 737.902344 29.03125 L 12.097656 29.03125 Z M 12.097656 0 " clip-rule="nonzero"/></clipPath><clipPath id="654daba72d"><path d="M 12.097656 7.457031 L 737.902344 7.457031 L 737.902344 28.726562 L 12.097656 28.726562 Z M 12.097656 7.457031 " clip-rule="nonzero"/></clipPath><clipPath id="0e74990729"><path d="M 22.730469 7.457031 L 1343.234375 7.457031 C 1349.109375 7.457031 1353.871094 12.214844 1353.871094 18.089844 C 1353.871094 23.964844 1349.109375 28.726562 1343.234375 28.726562 L 22.730469 28.726562 C 16.859375 28.726562 12.097656 23.964844 12.097656 18.089844 C 12.097656 12.214844 16.859375 7.457031 22.730469 7.457031 Z M 22.730469 7.457031 " clip-rule="nonzero"/></clipPath><clipPath id="d760e1fbe3"><path d="M 17.183594 0 L 737.902344 0 L 737.902344 21.269531 L 17.183594 21.269531 Z M 17.183594 0 " clip-rule="nonzero"/></clipPath><clipPath id="37631431c7"><path d="M 27.816406 0 L 1348.320312 0 C 1354.195312 0 1358.957031 4.761719 1358.957031 10.636719 C 1358.957031 16.507812 1354.195312 21.269531 1348.320312 21.269531 L 27.816406 21.269531 C 21.945312 21.269531 17.183594 16.507812 17.183594 10.636719 C 17.183594 4.761719 21.945312 0 27.816406 0 Z M 27.816406 0 " clip-rule="nonzero"/></clipPath></defs><g clip-path="url(#d05a67d6a8)"><path fill="#ffffff" d="M 12.097656 0 L 737.902344 0 L 737.902344 29.03125 L 12.097656 29.03125 Z M 12.097656 0 " fill-opacity="1" fill-rule="nonzero"/><path fill="#ffffff" d="M 12.097656 0 L 737.902344 0 L 737.902344 29.03125 L 12.097656 29.03125 Z M 12.097656 0 " fill-opacity="1" fill-rule="nonzero"/></g><g clip-path="url(#654daba72d)"><g clip-path="url(#0e74990729)"><path fill="#cbc0c6" d="M 12.097656 7.457031 L 1353.847656 7.457031 L 1353.847656 28.726562 L 12.097656 28.726562 Z M 12.097656 7.457031 " fill-opacity="1" fill-rule="nonzero"/></g></g><g clip-path="url(#d760e1fbe3)"><g clip-path="url(#37631431c7)"><path fill="#eff2f7" d="M 17.183594 0 L 1358.933594 0 L 1358.933594 21.269531 L 17.183594 21.269531 Z M 17.183594 0 " fill-opacity="1" fill-rule="nonzero"/></g></g></svg>