<svg xmlns="http://www.w3.org/2000/svg" xmlns:xlink="http://www.w3.org/1999/xlink" width="500" zoomAndPan="magnify" viewBox="0 0 375 374.999991" height="500" preserveAspectRatio="xMidYMid meet" version="1.0"><defs><clipPath id="067e77afc5"><path d="M 1 160.171875 L 374 160.171875 L 374 214.828125 L 1 214.828125 Z M 1 160.171875 " clip-rule="nonzero"/></clipPath></defs><g clip-path="url(#067e77afc5)"><path fill="#3b6bd8" d="M 346.941406 214.816406 L 36.058594 214.816406 C 25.132812 214.816406 15.757812 208.1875 11.753906 198.742188 C 11.550781 197.90625 11.722656 198.582031 11.03125 196.285156 C 10.789062 195.515625 10.320312 193.527344 10.019531 191.3125 L 9.753906 188.859375 L 9.679688 188.496094 L 9.679688 188.179688 L 9.488281 186.417969 C 8.859375 179.425781 10.175781 164.523438 1.570312 160.707031 C 1.8125 160.070312 11.410156 161.152344 16.988281 164.226562 L 19.339844 166.578125 L 21.308594 164.957031 C 25.519531 162.121094 30.59375 160.464844 36.058594 160.464844 L 346.941406 160.464844 C 361.503906 160.464844 373.316406 172.246094 373.316406 186.78125 L 373.316406 188.496094 C 373.316406 203.035156 361.503906 214.816406 346.941406 214.816406 Z M 346.941406 214.816406 " fill-opacity="1" fill-rule="evenodd"/></g></svg>