<svg xmlns="http://www.w3.org/2000/svg" xmlns:xlink="http://www.w3.org/1999/xlink" width="500" zoomAndPan="magnify" viewBox="0 0 375 374.999991" height="500" preserveAspectRatio="xMidYMid meet" version="1.0"><defs><clipPath id="3d1e180db3"><path d="M 1 160.078125 L 374 160.078125 L 374 214.828125 L 1 214.828125 Z M 1 160.078125 " clip-rule="nonzero"/></clipPath></defs><g clip-path="url(#3d1e180db3)"><path fill="#3b6bd8" d="M 346.941406 160.183594 L 36.058594 160.183594 C 25.132812 160.183594 15.757812 166.8125 11.753906 176.257812 C 11.550781 177.09375 11.722656 176.417969 11.03125 178.714844 C 10.789062 179.484375 10.320312 181.472656 10.019531 183.6875 L 9.753906 186.140625 L 9.679688 186.503906 L 9.679688 186.820312 L 9.488281 188.582031 C 8.859375 195.574219 10.175781 210.476562 1.570312 214.292969 C 1.8125 214.929688 11.410156 213.847656 16.988281 210.773438 L 19.339844 208.421875 L 21.308594 210.042969 C 25.519531 212.878906 30.59375 214.535156 36.058594 214.535156 L 346.941406 214.535156 C 361.503906 214.535156 373.316406 202.753906 373.316406 188.21875 L 373.316406 186.503906 C 373.316406 171.964844 361.503906 160.183594 346.941406 160.183594 Z M 346.941406 160.183594 " fill-opacity="1" fill-rule="evenodd"/></g></svg>