<svg xmlns="http://www.w3.org/2000/svg" xmlns:xlink="http://www.w3.org/1999/xlink" width="500" zoomAndPan="magnify" viewBox="0 0 375 374.999991" height="500" preserveAspectRatio="xMidYMid meet" version="1.0"><defs><clipPath id="123ece9a6c"><path d="M 1.4375 133.90625 L 373.726562 133.90625 L 373.726562 250.84375 L 1.4375 250.84375 Z M 1.4375 133.90625 " clip-rule="nonzero"/></clipPath><clipPath id="1f681f5910"><path d="M 315.089844 133.90625 L 1.4375 133.90625 L 1.4375 250.84375 L 315.089844 250.84375 L 373.5625 192.375 Z M 315.089844 133.90625 " clip-rule="nonzero"/></clipPath><clipPath id="0f973bdea1"><path d="M 1.4375 124.15625 L 373.726562 124.15625 L 373.726562 241.09375 L 1.4375 241.09375 Z M 1.4375 124.15625 " clip-rule="nonzero"/></clipPath><clipPath id="126c956ebb"><path d="M 315.089844 124.15625 L 1.4375 124.15625 L 1.4375 241.09375 L 315.089844 241.09375 L 373.5625 182.625 Z M 315.089844 124.15625 " clip-rule="nonzero"/></clipPath></defs><g clip-path="url(#123ece9a6c)"><g clip-path="url(#1f681f5910)"><path fill="#cbc0c6" d="M 1.4375 133.90625 L 373.726562 133.90625 L 373.726562 250.84375 L 1.4375 250.84375 Z M 1.4375 133.90625 " fill-opacity="1" fill-rule="nonzero"/></g></g><g clip-path="url(#0f973bdea1)"><g clip-path="url(#126c956ebb)"><path fill="#80ff00" d="M 1.4375 124.15625 L 373.726562 124.15625 L 373.726562 241.09375 L 1.4375 241.09375 Z M 1.4375 124.15625 " fill-opacity="1" fill-rule="nonzero"/></g></g></svg>