<svg xmlns="http://www.w3.org/2000/svg" xmlns:xlink="http://www.w3.org/1999/xlink" width="500" zoomAndPan="magnify" viewBox="0 0 375 374.999991" height="500" preserveAspectRatio="xMidYMid meet" version="1.0"><defs><clipPath id="59dda3840c"><path d="M 15.730469 31.460938 L 359.265625 31.460938 L 359.265625 374.996094 L 15.730469 374.996094 Z M 15.730469 31.460938 " clip-rule="nonzero"/></clipPath><clipPath id="c0b4aa9c8e"><path d="M 187.496094 374.996094 L 132.839844 257.886719 L 15.730469 203.230469 L 132.839844 148.574219 L 187.496094 31.460938 L 242.152344 148.574219 L 359.265625 203.230469 L 242.152344 257.886719 Z M 187.496094 374.996094 " clip-rule="nonzero"/></clipPath><clipPath id="8c7822c58a"><path d="M 15.730469 0 L 359.265625 0 L 359.265625 343.53125 L 15.730469 343.53125 Z M 15.730469 0 " clip-rule="nonzero"/></clipPath><clipPath id="feae246d07"><path d="M 187.496094 343.53125 L 132.839844 226.421875 L 15.730469 171.765625 L 132.839844 117.109375 L 187.496094 -0.00390625 L 242.152344 117.109375 L 359.265625 171.765625 L 242.152344 226.421875 Z M 187.496094 343.53125 " clip-rule="nonzero"/></clipPath></defs><g clip-path="url(#59dda3840c)"><g clip-path="url(#c0b4aa9c8e)"><path fill="#cbc0c6" d="M 359.265625 374.996094 L 15.730469 374.996094 L 15.730469 31.460938 L 359.265625 31.460938 Z M 359.265625 374.996094 " fill-opacity="1" fill-rule="nonzero"/></g></g><g clip-path="url(#8c7822c58a)"><g clip-path="url(#feae246d07)"><path fill="#80ff00" d="M 359.265625 343.53125 L 15.730469 343.53125 L 15.730469 -0.00390625 L 359.265625 -0.00390625 Z M 359.265625 343.53125 " fill-opacity="1" fill-rule="nonzero"/></g></g></svg>