<svg xmlns="http://www.w3.org/2000/svg" xmlns:xlink="http://www.w3.org/1999/xlink" width="500" zoomAndPan="magnify" viewBox="0 0 375 374.999991" height="500" preserveAspectRatio="xMidYMid meet" version="1.0"><defs><clipPath id="28ef99bf4e"><path d="M 0 137.75 L 375 137.75 L 375 245.75 L 0 245.75 Z M 0 137.75 " clip-rule="nonzero"/></clipPath><clipPath id="0dc1f98545"><path d="M 375 137.75 L 0 137.75 L 46.875 191.75 L 0 245.75 L 375 245.75 L 328.125 191.75 Z M 375 137.75 " clip-rule="nonzero"/></clipPath><clipPath id="81deeaf688"><path d="M 0 129.25 L 375 129.25 L 375 237.25 L 0 237.25 Z M 0 129.25 " clip-rule="nonzero"/></clipPath><clipPath id="8d9444e39c"><path d="M 375 129.25 L 0 129.25 L 46.875 183.25 L 0 237.25 L 375 237.25 L 328.125 183.25 Z M 375 129.25 " clip-rule="nonzero"/></clipPath></defs><g clip-path="url(#28ef99bf4e)"><g clip-path="url(#0dc1f98545)"><path fill="#cbc0c6" d="M 0 137.75 L 375.046875 137.75 L 375.046875 245.75 L 0 245.75 Z M 0 137.75 " fill-opacity="1" fill-rule="nonzero"/></g></g><g clip-path="url(#81deeaf688)"><g clip-path="url(#8d9444e39c)"><path fill="#80ff00" d="M 0 129.25 L 375.046875 129.25 L 375.046875 237.25 L 0 237.25 Z M 0 129.25 " fill-opacity="1" fill-rule="nonzero"/></g></g></svg>