<svg xmlns="http://www.w3.org/2000/svg" xmlns:xlink="http://www.w3.org/1999/xlink" width="500" zoomAndPan="magnify" viewBox="0 0 375 374.999991" height="500" preserveAspectRatio="xMidYMid meet" version="1.0"><defs><clipPath id="af6532ac58"><path d="M 0 138.585938 L 371.078125 138.585938 L 371.078125 245.273438 L 0 245.273438 Z M 0 138.585938 " clip-rule="nonzero"/></clipPath><clipPath id="f435447f72"><path d="M 53.332031 245.273438 L 371.078125 245.273438 L 371.078125 138.585938 L 53.332031 138.585938 L -0.0078125 191.929688 Z M 53.332031 245.273438 " clip-rule="nonzero"/></clipPath><clipPath id="29ac7545e2"><path d="M 4 129.691406 L 374.992188 129.691406 L 374.992188 236.375 L 4 236.375 Z M 4 129.691406 " clip-rule="nonzero"/></clipPath><clipPath id="def5969249"><path d="M 57.246094 236.375 L 374.992188 236.375 L 374.992188 129.691406 L 57.246094 129.691406 L 3.90625 183.03125 Z M 57.246094 236.375 " clip-rule="nonzero"/></clipPath></defs><g clip-path="url(#af6532ac58)"><g clip-path="url(#f435447f72)"><path fill="#cbc0c6" d="M 371.078125 245.273438 L 0.175781 245.273438 L 0.175781 138.585938 L 371.078125 138.585938 Z M 371.078125 245.273438 " fill-opacity="1" fill-rule="nonzero"/></g></g><g clip-path="url(#29ac7545e2)"><g clip-path="url(#def5969249)"><path fill="#80ff00" d="M 374.992188 236.375 L 4.09375 236.375 L 4.09375 129.691406 L 374.992188 129.691406 Z M 374.992188 236.375 " fill-opacity="1" fill-rule="nonzero"/></g></g></svg>