<svg xmlns="http://www.w3.org/2000/svg" xmlns:xlink="http://www.w3.org/1999/xlink" width="500" zoomAndPan="magnify" viewBox="0 0 375 374.999991" height="500" preserveAspectRatio="xMidYMid meet" version="1.0"><defs><clipPath id="b566306260"><path d="M 0 165.902344 L 194.894531 165.902344 L 194.894531 263.351562 L 0 263.351562 Z M 0 165.902344 " clip-rule="nonzero"/></clipPath><clipPath id="13e68ba493"><path d="M 146.171875 165.902344 L 0 165.902344 L 0 263.351562 L 146.171875 263.351562 L 194.894531 214.625 Z M 146.171875 165.902344 " clip-rule="nonzero"/></clipPath><clipPath id="b0a980b3f5"><path d="M 180.097656 111.597656 L 374.992188 111.597656 L 374.992188 209.042969 L 180.097656 209.042969 Z M 180.097656 111.597656 " clip-rule="nonzero"/></clipPath><clipPath id="941daad2a3"><path d="M 228.820312 209.042969 L 374.992188 209.042969 L 374.992188 111.597656 L 228.820312 111.597656 L 180.097656 160.320312 Z M 228.820312 209.042969 " clip-rule="nonzero"/></clipPath></defs><g clip-path="url(#b566306260)"><g clip-path="url(#13e68ba493)"><path fill="#ffffff" d="M 0 165.902344 L 194.894531 165.902344 L 194.894531 263.351562 L 0 263.351562 Z M 0 165.902344 " fill-opacity="1" fill-rule="nonzero"/></g></g><g clip-path="url(#b0a980b3f5)"><g clip-path="url(#941daad2a3)"><path fill="#ffffff" d="M 374.992188 209.042969 L 180.097656 209.042969 L 180.097656 111.597656 L 374.992188 111.597656 Z M 374.992188 209.042969 " fill-opacity="1" fill-rule="nonzero"/></g></g></svg>