<svg xmlns="http://www.w3.org/2000/svg" xmlns:xlink="http://www.w3.org/1999/xlink" width="500" zoomAndPan="magnify" viewBox="0 0 375 374.999991" height="500" preserveAspectRatio="xMidYMid meet" version="1.0"><path fill="#ffffff" d="M 187.519531 375.035156 L 187.515625 375.035156 C 83.953125 375.035156 0 291.082031 0 187.519531 L 0 187.515625 C 0 83.953125 83.953125 0 187.515625 0 L 187.519531 0 C 291.082031 0 375.035156 83.953125 375.035156 187.515625 L 375.035156 187.519531 C 375.035156 291.082031 291.082031 375.035156 187.519531 375.035156 " fill-opacity="1" fill-rule="nonzero"/><path fill="#3b6bd8" d="M 217.070312 187.519531 L 304.441406 123.253906 L 304.441406 251.777344 Z M 217.070312 187.519531 " fill-opacity="1" fill-rule="nonzero"/><path fill="#3b6bd8" d="M 70.597656 123.253906 L 157.964844 187.519531 L 70.597656 251.777344 Z M 70.597656 123.253906 " fill-opacity="1" fill-rule="nonzero"/><path fill="#3b6bd8" d="M 82.742188 262.929688 L 171.621094 197.5625 L 187.519531 209.25 L 203.414062 197.5625 L 292.292969 262.929688 L 82.742188 262.929688 " fill-opacity="1" fill-rule="nonzero"/><path fill="#3b6bd8" d="M 82.742188 112.101562 L 292.292969 112.101562 L 187.519531 189.167969 Z M 82.742188 112.101562 " fill-opacity="1" fill-rule="nonzero"/></svg>